HIERARCHY
ROOT Hips
{
	OFFSET 0.00000 0.00000 0.00000
	CHANNELS 6 Xposition Yposition Zposition Zrotation Yrotation Xrotation 
	JOINT LHipJoint
	{
		OFFSET 0 0 0
		CHANNELS 3 Zrotation Yrotation Xrotation
		JOINT LeftUpLeg
		{
			OFFSET 1.42489 -1.84941 0.69647
			CHANNELS 3 Zrotation Yrotation Xrotation
			JOINT LeftLeg
			{
				OFFSET 2.44443 -6.71602 0.00000
				CHANNELS 3 Zrotation Yrotation Xrotation
				JOINT LeftFoot
				{
					OFFSET 2.62838 -7.22137 0.00000
					CHANNELS 3 Zrotation Yrotation Xrotation
					JOINT LeftToeBase
					{
						OFFSET 0.24036 -0.66037 2.29953
						CHANNELS 3 Zrotation Yrotation Xrotation
						End Site
						{
							OFFSET 0.00000 -0.00000 1.19837
						}
					}
				}
			}
		}
	}
	JOINT RHipJoint
	{
		OFFSET 0 0 0
		CHANNELS 3 Zrotation Yrotation Xrotation
		JOINT RightUpLeg
		{
			OFFSET -1.37055 -1.84941 0.69647
			CHANNELS 3 Zrotation Yrotation Xrotation
			JOINT RightLeg
			{
				OFFSET -2.54834 -7.00152 0.00000
				CHANNELS 3 Zrotation Yrotation Xrotation
				JOINT RightFoot
				{
					OFFSET -2.65692 -7.29983 0.00000
					CHANNELS 3 Zrotation Yrotation Xrotation
					JOINT RightToeBase
					{
						OFFSET -0.18839 -0.51760 2.29390
						CHANNELS 3 Zrotation Yrotation Xrotation
						End Site
						{
							OFFSET -0.00000 -0.00000 1.18261
						}
					}
				}
			}
		}
	}
	JOINT LowerBack
	{
		OFFSET 0 0 0
		CHANNELS 3 Zrotation Yrotation Xrotation
		JOINT Spine
		{
			OFFSET 0.05220 2.15489 0.05011
			CHANNELS 3 Zrotation Yrotation Xrotation
			JOINT Spine1
			{
				OFFSET -0.07653 2.14219 -0.05668
				CHANNELS 3 Zrotation Yrotation Xrotation
				JOINT Neck
				{
					OFFSET 0 0 0
					CHANNELS 3 Zrotation Yrotation Xrotation
					JOINT Neck1
					{
						OFFSET 0.01370 1.58638 0.01447
						CHANNELS 3 Zrotation Yrotation Xrotation
						JOINT Head
						{
							OFFSET 0.23548 1.54190 -0.21747
							CHANNELS 3 Zrotation Yrotation Xrotation
							End Site
							{
								OFFSET 0.07132 1.59823 -0.08163
							}
						}
					}
				}
				JOINT LeftShoulder
				{
					OFFSET 0 0 0
					CHANNELS 3 Zrotation Yrotation Xrotation
					JOINT LeftArm
					{
						OFFSET 3.47056 1.45357 -0.58896
						CHANNELS 3 Zrotation Yrotation Xrotation
						JOINT LeftForeArm
						{
							OFFSET 5.19069 -0.00000 0.00000
							CHANNELS 3 Zrotation Yrotation Xrotation
							JOINT LeftHand
							{
								OFFSET 3.30016 -0.00000 0.00000
								CHANNELS 3 Zrotation Yrotation Xrotation
								JOINT LeftFingerBase
								{
									OFFSET 0 0 0
									CHANNELS 3 Zrotation Yrotation Xrotation
									JOINT LeftHandIndex1
									{
										OFFSET 0.70770 -0.00000 0.00000
										CHANNELS 3 Zrotation Yrotation Xrotation
										End Site
										{
											OFFSET 0.57056 -0.00000 0.00000
										}
									}
								}
								JOINT LThumb
								{
									OFFSET 0 0 0
									CHANNELS 3 Zrotation Yrotation Xrotation
									End Site
									{
										OFFSET 0.57928 -0.00000 0.57928
									}
								}
							}
						}
					}
				}
				JOINT RightShoulder
				{
					OFFSET 0 0 0
					CHANNELS 3 Zrotation Yrotation Xrotation
					JOINT RightArm
					{
						OFFSET -2.89018 2.03305 -0.26731
						CHANNELS 3 Zrotation Yrotation Xrotation
						JOINT RightForeArm
						{
							OFFSET -5.23924 -0.00000 0.00000
							CHANNELS 3 Zrotation Yrotation Xrotation
							JOINT RightHand
							{
								OFFSET -3.32953 -0.00000 0.00000
								CHANNELS 3 Zrotation Yrotation Xrotation
								JOINT RightFingerBase
								{
									OFFSET 0 0 0
									CHANNELS 3 Zrotation Yrotation Xrotation
									JOINT RightHandIndex1
									{
										OFFSET -0.60741 -0.00000 0.00000
										CHANNELS 3 Zrotation Yrotation Xrotation
										End Site
										{
											OFFSET -0.48971 -0.00000 0.00000
										}
									}
								}
								JOINT RThumb
								{
									OFFSET 0 0 0
									CHANNELS 3 Zrotation Yrotation Xrotation
									End Site
									{
										OFFSET -0.49719 -0.00000 0.49719
									}
								}
							}
						}
					}
				}
			}
		}
	}
}
MOTION
Frames: 15
Frame Time: .0083333
4.8662 16.4239 22.7380 -177.3020 -0.3681 190.6760 0.0000 0.0000 0.0000 -11.6700 14.1529 18.2675 0.0000 -0.0000 -0.0000 0.4773 12.6592 -23.0699 0.3455 -3.7769 -10.4497 0.0000 0.0000 0.0000 23.6226 25.1097 -27.1415 -7.2476 -15.5369 49.8048 -1.8998 1.2862 -25.7126 -0.0070 0.5386 -1.4800 -0.8593 -2.0495 -9.0020 -3.6326 -2.8274 -1.6833 -3.6210 -1.5335 3.1499 -6.1685 -8.5193 -1.5097 19.1064 -12.7432 19.0145 6.5269 -4.3298 7.7158 0.0000 0.0000 0.0000 -74.8257 -11.2110 38.5188 20.1351 -30.8047 -5.6003 -0.0000 0.0000 -10.5742 17.2079 -6.4527 -1.9934 -7.1250 0.0000 -0.0000 -7.0238 23.2388 3.7096 0.0000 0.0000 0.0000 76.1244 3.9858 64.4927 -41.1435 48.7330 -19.2944 0.0000 -0.0000 -2.4589 -6.5447 -8.8312 1.0091 7.1250 -0.0000 -0.0000 17.4004 -38.3008 2.9787
4.8460 16.4117 22.7066 -177.4980 -0.4558 190.8780 0.0000 0.0000 0.0000 -11.9713 14.2305 18.1229 0.0000 0.0000 0.0000 0.4998 12.6080 -23.2181 0.3423 -3.7593 -10.4004 0.0000 0.0000 0.0000 23.2547 25.0390 -27.3131 -7.2849 -15.5672 49.9438 -1.9634 1.5195 -26.0866 -0.0090 0.6131 -1.6849 -0.7231 -2.0010 -8.9524 -3.4996 -2.7578 -1.6083 -3.5505 -1.4882 3.2047 -6.0821 -8.5854 -1.5743 18.9169 -12.8346 19.5726 6.4554 -4.3238 7.9081 0.0000 0.0000 0.0000 -74.8706 -11.1873 38.5687 20.1979 -30.8800 -5.6325 -0.0000 0.0000 -10.6245 17.1561 -6.4632 -1.9902 -7.1250 0.0000 -0.0000 -7.0616 23.2300 3.7313 0.0000 0.0000 0.0000 75.9619 4.1924 64.1685 -41.0812 48.6976 -19.2476 0.0000 -0.0000 -2.4854 -6.5147 -8.8864 1.0106 7.1250 -0.0000 -0.0000 17.4391 -38.3515 2.9632
4.8256 16.3993 22.6738 -177.6570 -0.5358 191.0660 0.0000 0.0000 0.0000 -12.2153 14.3215 17.9976 0.0000 0.0000 0.0000 0.5205 12.5334 -23.3244 0.3388 -3.7404 -10.3473 0.0000 0.0000 0.0000 22.9441 24.9578 -27.4667 -7.3241 -15.5989 50.0898 -2.0250 1.7340 -26.4465 -0.0117 0.6997 -1.9228 -0.5520 -1.9549 -8.9064 -3.3518 -2.6951 -1.5365 -3.4853 -1.4458 3.2567 -5.9881 -8.6407 -1.6305 18.7524 -12.9062 20.0490 6.3909 -4.3131 8.0710 -0.0000 -0.0000 0.0000 -74.9272 -11.1514 38.6585 20.2684 -30.9643 -5.6688 -0.0000 0.0000 -10.6578 17.1036 -6.5002 -1.9951 -7.1250 0.0000 -0.0000 -7.0991 23.1936 3.7574 -0.0000 -0.0000 0.0000 75.8106 4.3757 63.8729 -41.0348 48.6711 -19.2127 0.0000 -0.0000 -2.5229 -6.4682 -8.9523 1.0107 7.1250 -0.0000 -0.0000 17.4944 -38.4112 2.9466
4.8052 16.3868 22.6390 -177.7700 -0.5951 191.2340 0.0000 0.0000 0.0000 -12.3910 14.4427 17.8990 0.0000 -0.0000 -0.0000 0.5395 12.4266 -23.3812 0.3352 -3.7208 -10.2926 0.0000 0.0000 0.0000 22.7073 24.8707 -27.5868 -7.3625 -15.6297 50.2324 -2.0845 1.9185 -26.7965 -0.0154 0.8022 -2.2048 -0.3415 -1.9068 -8.8596 -3.1894 -2.6342 -1.4720 -3.4269 -1.4040 3.2996 -5.8823 -8.6839 -1.6785 18.6177 -12.9577 20.4201 6.3332 -4.2993 8.1962 -0.0000 -0.0000 0.0000 -74.9934 -11.1038 38.7922 20.3404 -31.0503 -5.7059 -0.0000 0.0000 -10.6786 17.0575 -6.5550 -2.0061 -7.1250 0.0000 -0.0000 -7.1314 23.1385 3.7838 -0.0000 -0.0000 0.0000 75.6747 4.5292 63.6129 -41.0044 48.6538 -19.1899 0.0000 -0.0000 -2.5524 -6.4173 -9.0290 1.0112 7.1250 -0.0000 -0.0000 17.5563 -38.4810 2.9265
4.7853 16.3747 22.6018 -177.8430 -0.6436 191.3790 0.0000 0.0000 0.0000 -12.5000 14.5854 17.8359 0.0000 0.0000 0.0000 0.5562 12.2883 -23.3846 0.3317 -3.7012 -10.2375 0.0000 0.0000 0.0000 22.5430 24.7683 -27.6596 -7.3964 -15.6568 50.3583 -2.1441 2.0744 -27.1496 -0.0198 0.9090 -2.4984 -0.1098 -1.8675 -8.8171 -3.0066 -2.5885 -1.4188 -3.3607 -1.3699 3.3324 -5.7997 -8.7135 -1.6849 18.5334 -12.9868 20.6616 6.2962 -4.2866 8.2721 0.0000 0.0000 0.0000 -75.0841 -11.0377 38.9401 20.4051 -31.1273 -5.7393 -0.0000 0.0000 -10.6766 17.0217 -6.6164 -2.0202 -7.1250 0.0000 -0.0000 -7.1558 23.0763 3.8073 0.0000 0.0000 0.0000 75.5439 4.6494 63.4147 -40.9845 48.6425 -19.1749 0.0000 -0.0000 -2.5633 -6.3769 -9.1029 1.0130 7.1250 -0.0000 -0.0000 17.6087 -38.5488 2.9053
4.7663 16.3633 22.5614 -177.8730 -0.6814 191.4960 0.0000 0.0000 0.0000 -12.5384 14.7524 17.8154 0.0000 -0.0000 -0.0000 0.5696 12.1234 -23.3326 0.3280 -3.6809 -10.1807 0.0000 0.0000 0.0000 22.4580 24.6576 -27.6661 -7.4228 -15.6778 50.4559 -2.2052 2.1956 -27.5163 -0.0250 1.0206 -2.8056 0.1451 -1.8314 -8.7806 -2.8110 -2.5508 -1.3735 -3.2955 -1.3400 3.3595 -5.7233 -8.7374 -1.6761 18.4992 -13.0081 20.7771 6.2743 -4.2790 8.3055 0.0000 0.0000 0.0000 -75.1883 -10.9733 39.1133 20.4544 -31.1859 -5.7648 -0.0000 0.0000 -10.6624 16.9895 -6.6720 -2.0331 -7.1250 0.0000 -0.0000 -7.1778 23.0199 3.8285 0.0000 0.0000 0.0000 75.4337 4.7442 63.2653 -40.9564 48.6264 -19.1539 0.0000 -0.0000 -2.5484 -6.3569 -9.1687 1.0170 7.1250 -0.0000 -0.0000 17.6422 -38.6103 2.8835
4.7483 16.3527 22.5171 -177.8800 -0.7236 191.5800 0.0000 0.0000 0.0000 -12.5226 14.9272 17.8446 0.0000 0.0000 0.0000 0.5775 11.9491 -23.2228 0.3244 -3.6608 -10.1242 0.0000 0.0000 0.0000 22.4355 24.5273 -27.5949 -7.4396 -15.6912 50.5179 -2.2699 2.2857 -27.9093 -0.0308 1.1335 -3.1163 0.3993 -1.8092 -8.7491 -2.6046 -2.5342 -1.3438 -3.2207 -1.3217 3.3723 -5.6695 -8.7554 -1.6450 18.5197 -13.0222 20.7803 6.2728 -4.2767 8.3010 -0.0000 0.0000 0.0000 -75.3162 -10.9021 39.2862 20.4795 -31.2157 -5.7778 -0.0000 0.0000 -10.6345 16.9538 -6.7139 -2.0412 -7.1250 0.0000 -0.0000 -7.2028 22.9779 3.8490 -0.0000 0.0000 0.0000 75.3401 4.8057 63.1827 -40.9055 48.5973 -19.1157 0.0000 -0.0000 -2.5102 -6.3497 -9.2255 1.0221 7.1250 -0.0000 -0.0000 17.6629 -38.6641 2.8628
4.7315 16.3431 22.4683 -177.8850 -0.7626 191.6370 0.0000 0.0000 0.0000 -12.4820 15.1127 17.9161 0.0000 0.0000 0.0000 0.5784 11.7803 -23.0583 0.3209 -3.6410 -10.0689 0.0000 0.0000 0.0000 22.4463 24.3854 -27.4489 -7.4468 -15.6969 50.5446 -2.3390 2.3494 -28.3297 -0.0375 1.2496 -3.4360 0.6369 -1.7950 -8.7468 -2.4033 -2.5298 -1.3265 -3.1444 -1.3109 3.3883 -5.6349 -8.7792 -1.5924 18.5938 -13.0459 20.6795 6.2894 -4.2865 8.2637 0.0000 0.0000 0.0000 -75.4558 -10.8367 39.4594 20.4809 -31.2174 -5.7785 -0.0000 0.0000 -10.6029 16.9078 -6.7401 -2.0432 -7.1250 0.0000 -0.0000 -7.2358 22.9526 3.8712 0.0000 0.0000 0.0000 75.2789 4.8441 63.1509 -40.8102 48.5426 -19.0442 0.0000 -0.0000 -2.4514 -6.3450 -9.2707 1.0263 7.1250 -0.0000 -0.0000 17.6786 -38.7071 2.8461
4.7163 16.3344 22.4144 -177.9010 -0.8001 191.6710 0.0000 0.0000 0.0000 -12.4334 15.3035 18.0246 0.0000 -0.0000 -0.0000 0.5705 11.6356 -22.8390 0.3176 -3.6228 -10.0178 0.0000 0.0000 0.0000 22.4739 24.2363 -27.2323 -7.4459 -15.6962 50.5414 -2.4122 2.3877 -28.7761 -0.0448 1.3659 -3.7562 0.8386 -1.7933 -8.7753 -2.2082 -2.5427 -1.3318 -3.0573 -1.3111 3.3981 -5.6259 -8.8107 -1.5168 18.7064 -13.0808 20.5057 6.3209 -4.3083 8.2038 0.0000 -0.0000 0.0000 -75.6123 -10.7585 39.6188 20.4621 -31.1951 -5.7688 -0.0000 0.0000 -10.5715 16.8474 -6.7398 -2.0354 -7.1250 0.0000 -0.0000 -7.2801 22.9552 3.8948 0.0000 -0.0000 0.0000 75.2456 4.8557 63.1821 -40.6518 48.4513 -18.9256 0.0000 -0.0000 -2.3860 -6.3342 -9.3014 1.0279 7.1250 -0.0000 -0.0000 17.6956 -38.7357 2.8361
4.7024 16.3267 22.3552 -177.9430 -0.8492 191.6780 0.0000 0.0000 0.0000 -12.3918 15.4844 18.1720 0.0000 0.0000 0.0000 0.5523 11.5292 -22.5629 0.3156 -3.6115 -9.9861 0.0000 0.0000 0.0000 22.5011 24.0702 -26.9505 -7.4392 -15.6909 50.5166 -2.4884 2.4006 -29.2401 -0.0526 1.4804 -4.0717 0.9950 -1.8057 -8.8360 -2.0288 -2.5741 -1.3609 -2.9639 -1.3230 3.4013 -5.6305 -8.8488 -1.4386 18.8507 -13.1265 20.2891 6.3636 -4.3372 8.1339 0.0000 0.0000 0.0000 -75.7827 -10.6719 39.7648 20.4272 -31.1536 -5.7507 -0.0000 0.0000 -10.5491 16.7669 -6.7120 -2.0168 -7.1250 0.0000 -0.0000 -7.3400 22.9872 3.9219 0.0000 0.0000 0.0000 75.2439 4.8349 63.2604 -40.4290 48.3220 -18.7590 0.0000 -0.0000 -2.3164 -6.2923 -9.3298 1.0241 7.1250 -0.0000 -0.0000 17.7377 -38.7596 2.8325
4.6899 16.3201 22.2904 -178.0190 -0.9081 191.6610 0.0000 0.0000 0.0000 -12.3658 15.6551 18.3555 0.0000 -0.0000 -0.0000 0.5235 11.4668 -22.2307 0.3158 -3.6123 -9.9883 0.0000 0.0000 0.0000 22.5181 23.8917 -26.6093 -7.4284 -15.6823 50.4765 -2.5659 2.3929 -29.7093 -0.0602 1.5833 -4.3555 1.1028 -1.8291 -8.9394 -1.8703 -2.6197 -1.4130 -2.8679 -1.3445 3.4049 -5.6417 -8.8919 -1.3609 19.0176 -13.1797 20.0495 6.4139 -4.3698 8.0599 -0.0000 -0.0000 0.0000 -75.9581 -10.5687 39.9088 20.3849 -31.1033 -5.7289 -0.0000 0.0000 -10.5411 16.6845 -6.6800 -1.9968 -7.1250 0.0000 -0.0000 -7.4014 23.0235 3.9490 -0.0000 -0.0000 0.0000 75.2740 4.7818 63.3746 -40.1415 48.1535 -18.5446 0.0000 -0.0000 -2.2423 -6.2208 -9.3485 1.0144 7.1250 -0.0000 -0.0000 17.8021 -38.7720 2.8379
4.6790 16.3146 22.2200 -178.1150 -0.9868 191.6150 0.0000 0.0000 0.0000 -12.3351 15.8083 18.5811 0.0000 -0.0000 -0.0000 0.4840 11.4495 -21.8366 0.3187 -3.6290 -10.0353 0.0000 0.0000 0.0000 22.5440 23.6996 -26.2071 -7.4139 -15.6707 50.4228 -2.6418 2.3508 -30.1712 -0.0673 1.6736 -4.6046 1.1748 -1.8656 -9.0767 -1.7295 -2.6827 -1.4886 -2.7732 -1.3768 3.4027 -5.6593 -8.9405 -1.2899 19.1961 -13.2414 19.8052 6.4685 -4.4054 7.9887 0.0000 -0.0000 0.0000 -76.1363 -10.4483 40.0490 20.3379 -31.0473 -5.7046 -0.0000 0.0000 -10.5472 16.5988 -6.6528 -1.9779 -7.1250 0.0000 -0.0000 -7.4652 23.0549 3.9782 0.0000 -0.0000 0.0000 75.3295 4.6902 63.5195 -39.8046 47.9537 -18.2940 0.0000 -0.0000 -2.1629 -6.1129 -9.3684 0.9988 7.1250 -0.0000 -0.0000 17.8970 -38.7830 2.8492
4.6698 16.3103 22.1439 -178.2150 -1.0919 191.5310 0.0000 0.0000 0.0000 -12.2752 15.9418 18.8586 0.0000 -0.0000 -0.0000 0.4344 11.4713 -21.3769 0.3251 -3.6647 -10.1352 0.0000 0.0000 0.0000 22.6028 23.4954 -25.7331 -7.3950 -15.6557 50.3530 -2.7148 2.2720 -30.6185 -0.0729 1.7413 -4.7912 1.2210 -1.9159 -9.2419 -1.5982 -2.7651 -1.5864 -2.6770 -1.4206 3.3928 -5.6825 -8.9855 -1.2276 19.3853 -13.2982 19.5673 6.5285 -4.4365 7.9220 0.0000 -0.0000 0.0000 -76.3199 -10.3013 40.1855 20.2940 -30.9950 -5.6820 -0.0000 0.0000 -10.5618 16.5234 -6.6407 -1.9648 -7.1250 0.0000 -0.0000 -7.5209 23.0701 4.0058 0.0000 -0.0000 0.0000 75.3955 4.5476 63.6923 -39.4434 47.7367 -18.0262 0.0000 -0.0000 -2.0762 -5.9837 -9.3782 0.9785 7.1250 -0.0000 -0.0000 18.0069 -38.7824 2.8684
4.6623 16.3068 22.0624 -178.3070 -1.2200 191.4090 0.0000 0.0000 0.0000 -12.1715 16.0605 19.1881 0.0000 -0.0000 -0.0000 0.3747 11.5349 -20.8465 0.3344 -3.7164 -10.2802 0.0000 0.0000 0.0000 22.7095 23.2811 -25.1841 -7.3700 -15.6357 50.2604 -2.7825 2.1484 -31.0409 -0.0773 1.7931 -4.9342 1.2567 -1.9742 -9.4302 -1.4767 -2.8599 -1.7036 -2.5874 -1.4721 3.3752 -5.7038 -9.0270 -1.1873 19.5806 -13.3512 19.3415 6.5907 -4.4620 7.8636 0.0000 0.0000 0.0000 -76.4980 -10.1371 40.3350 20.2559 -30.9495 -5.6624 -0.0000 0.0000 -10.5908 16.4570 -6.6376 -1.9556 -7.1250 0.0000 -0.0000 -7.5697 23.0760 4.0312 0.0000 0.0000 0.0000 75.4692 4.3493 63.8791 -39.0807 47.5157 -17.7583 0.0000 -0.0000 -1.9810 -5.8364 -9.3885 0.9553 7.1250 -0.0000 -0.0000 18.1318 -38.7809 2.8906
4.6563 16.3045 21.9755 -178.3890 -1.3841 191.2500 0.0000 0.0000 0.0000 -12.0204 16.1521 19.5731 0.0000 -0.0000 -0.0000 0.3046 11.6424 -20.2373 0.3458 -3.7787 -10.4548 0.0000 0.0000 0.0000 22.8656 23.0418 -24.5580 -7.3364 -15.6087 50.1354 -2.8455 1.9888 -31.4416 -0.0798 1.8221 -5.0142 1.2849 -2.0442 -9.6440 -1.3636 -2.9720 -1.8342 -2.5055 -1.5334 3.3568 -5.7294 -9.0660 -1.1675 19.7816 -13.4018 19.1218 6.6554 -4.4843 7.8118 0.0000 0.0000 0.0000 -76.6733 -9.9678 40.4883 20.2199 -30.9064 -5.6439 -0.0000 0.0000 -10.6174 16.4037 -6.6511 -1.9528 -7.1250 0.0000 -0.0000 -7.6083 23.0640 4.0542 0.0000 0.0000 0.0000 75.5379 4.0988 64.0811 -38.7355 47.3026 -17.5041 0.0000 -0.0000 -1.8844 -5.6946 -9.3850 0.9316 7.1250 -0.0000 -0.0000 18.2486 -38.7668 2.9174
